<?xml version="1.0" standalone="no"?>
<!DOCTYPE svg PUBLIC "-//W3C//DTD SVG 20010904//EN"
 "http://www.w3.org/TR/2001/REC-SVG-20010904/DTD/svg10.dtd">
<svg version="1.0" xmlns="http://www.w3.org/2000/svg"
 width="820.000000pt" height="630.000000pt" viewBox="0 0 820.000000 630.000000"
 preserveAspectRatio="xMidYMid meet">

<g transform="translate(0.000000,630.000000) scale(0.100000,-0.100000)"
fill="#000000" stroke="none">
<path d="M3805 6294 c-1049 -57 -2045 -391 -2905 -972 -322 -218 -734 -566
-811 -686 -136 -208 -111 -463 62 -635 134 -134 330 -180 514 -119 86 28 109
45 284 200 758 676 1601 1058 2616 1184 176 21 701 30 888 15 1082 -91 2011
-495 2822 -1227 145 -131 220 -174 336 -195 55 -10 87 -10 147 -1 367 57 551
469 347 777 -58 87 -332 331 -590 525 -844 635 -1825 1014 -2888 1116 -154 14
-673 26 -822 18z"/>
<path d="M3687 4604 c-891 -88 -1757 -488 -2368 -1094 -140 -138 -168 -183
-197 -317 -13 -63 -14 -87 -4 -156 35 -239 218 -414 455 -433 162 -14 282 36
438 183 245 229 479 390 769 532 700 342 1531 395 2278 145 412 -138 785 -364
1126 -683 74 -69 128 -110 170 -130 300 -142 643 26 712 347 18 85 17 131 -1
210 -33 139 -99 226 -306 409 -648 568 -1430 908 -2273 988 -196 19 -607 18
-799 -1z"/>
<path d="M3905 2944 c-16 -2 -70 -9 -120 -15 -416 -50 -859 -245 -1195 -524
-118 -98 -271 -263 -302 -325 -44 -88 -61 -173 -55 -265 6 -94 27 -159 75
-235 46 -75 77 -106 145 -151 151 -99 330 -111 493 -35 56 27 97 58 193 149
270 258 528 375 886 402 175 13 413 -29 588 -104 174 -74 285 -149 443 -301
85 -83 127 -116 185 -144 192 -95 405 -63 563 84 104 98 156 220 156 366 0
101 -25 188 -79 270 -42 65 -217 239 -326 326 -318 252 -700 418 -1110 483
-95 15 -472 29 -540 19z"/>
<path d="M3960 1199 c-25 -5 -83 -27 -129 -49 -163 -78 -287 -236 -327 -416
-46 -207 30 -440 190 -580 104 -90 270 -154 405 -154 222 0 444 140 539 340
54 113 66 175 59 301 -6 128 -31 203 -99 305 -81 121 -211 213 -353 249 -64
16 -211 18 -285 4z"/>
</g>
</svg>
